<?xml version="1.0" standalone="no"?>
<!DOCTYPE svg PUBLIC "-//W3C//DTD SVG 20010904//EN"
 "http://www.w3.org/TR/2001/REC-SVG-20010904/DTD/svg10.dtd">
<svg version="1.0" xmlns="http://www.w3.org/2000/svg"
 width="4096.000000pt" height="4096.000000pt" viewBox="0 0 4096.000000 4096.000000"
 preserveAspectRatio="xMidYMid meet">

<g transform="translate(0.000000,4096.000000) scale(0.100000,-0.100000)"
fill="#000000" stroke="none">
<path d="M14620 36463 c-1916 -72 -3712 -690 -5250 -1806 -1384 -1004 -2488
-2388 -3157 -3957 -453 -1061 -699 -2151 -753 -3325 -13 -293 -13 -11841 0
-12120 50 -1039 243 -1987 597 -2929 848 -2256 2543 -4123 4708 -5185 1124
-552 2289 -861 3585 -953 272 -19 11987 -19 12260 0 1729 122 3286 650 4690
1592 393 264 687 493 1066 832 917 818 1705 1876 2230 2991 547 1160 842 2353
904 3647 13 291 14 11819 0 12125 -72 1606 -523 3110 -1343 4480 -505 845
-1168 1634 -1921 2288 -1295 1124 -2860 1874 -4541 2176 -313 56 -622 94
-1075 133 -112 9 -1477 12 -6035 13 -3239 1 -5924 0 -5965 -2z m5170 -3453
c351 -21 396 -27 528 -70 67 -22 130 -40 139 -40 8 0 39 -13 67 -29 28 -16 75
-33 104 -37 33 -4 67 -17 91 -34 21 -16 66 -35 99 -44 34 -8 88 -29 120 -45
32 -16 85 -37 118 -46 59 -17 169 -76 234 -125 19 -15 51 -33 70 -40 37 -14
123 -62 205 -116 28 -17 69 -41 92 -53 23 -11 48 -29 55 -38 23 -31 112 -100
163 -126 28 -14 82 -56 121 -94 40 -37 92 -86 115 -108 24 -23 60 -59 79 -80
19 -22 51 -54 70 -72 57 -51 183 -184 211 -223 41 -57 138 -264 150 -322 6
-29 20 -67 30 -85 11 -17 26 -67 34 -110 8 -43 24 -114 36 -158 33 -121 39
-179 84 -760 13 -171 22 -846 11 -864 -10 -16 14 -271 29 -308 24 -59 46 -66
163 -49 53 8 126 17 162 21 93 9 153 31 206 75 30 24 66 43 98 51 28 7 69 20
91 29 23 10 61 21 85 25 25 4 63 17 86 30 22 13 63 29 90 36 27 7 69 22 94 34
25 13 77 35 115 50 39 15 85 38 103 52 17 13 57 33 87 43 31 11 68 28 83 38
15 11 54 33 87 49 33 16 94 49 135 73 41 24 100 56 130 73 30 16 64 38 75 47
11 10 40 28 64 40 24 12 61 34 83 50 21 16 58 31 81 35 23 4 74 17 114 31 94
32 160 31 221 -1 32 -17 63 -25 98 -25 59 0 139 -22 190 -52 22 -13 64 -24
115 -29 64 -6 88 -13 116 -35 19 -14 66 -34 104 -44 38 -10 91 -32 117 -48 26
-17 65 -34 87 -38 53 -9 65 -16 165 -89 47 -34 95 -66 108 -70 13 -4 45 -25
72 -48 57 -50 164 -127 175 -127 5 0 22 -11 39 -23 31 -24 138 -91 206 -129
19 -11 58 -44 87 -73 29 -30 69 -66 90 -82 132 -97 360 -333 449 -463 87 -126
88 -128 92 -293 4 -143 3 -151 -23 -220 -54 -142 -77 -193 -100 -227 -14 -20
-31 -56 -39 -82 -7 -25 -25 -61 -39 -79 -13 -19 -35 -54 -47 -79 -40 -80 -406
-425 -509 -479 -13 -7 -43 -28 -67 -46 -24 -18 -60 -39 -81 -45 -21 -7 -58
-25 -83 -40 -25 -15 -72 -36 -105 -45 -32 -9 -82 -28 -110 -42 -32 -17 -77
-29 -126 -34 -55 -5 -93 -16 -135 -38 -35 -18 -90 -35 -134 -42 -41 -7 -97
-23 -123 -36 -57 -29 -175 -53 -255 -53 -44 0 -72 -8 -127 -34 -52 -26 -93
-37 -159 -45 -61 -7 -101 -18 -130 -35 -24 -14 -80 -31 -136 -41 -52 -10 -121
-28 -152 -41 -32 -13 -89 -28 -127 -34 -41 -6 -107 -26 -159 -49 -64 -28 -110
-42 -163 -47 -41 -4 -110 -20 -154 -36 -46 -17 -116 -34 -163 -39 -57 -6 -110
-20 -169 -45 -60 -24 -113 -38 -168 -44 -55 -6 -100 -18 -145 -39 -37 -17 -98
-35 -140 -41 -41 -6 -112 -24 -157 -40 -45 -16 -120 -36 -166 -44 -47 -8 -104
-24 -126 -35 -22 -12 -71 -28 -108 -36 -38 -7 -98 -27 -135 -44 -36 -17 -107
-39 -157 -50 -50 -11 -99 -25 -110 -30 -10 -6 -68 -24 -128 -40 -59 -16 -135
-43 -167 -60 -32 -17 -65 -31 -74 -31 -28 0 -224 -102 -283 -146 -86 -66 -136
-137 -153 -220 -34 -165 -39 -292 -23 -674 8 -201 16 -414 17 -474 2 -121 8
-147 42 -170 34 -24 71 -20 146 18 37 18 78 37 92 41 14 4 45 20 70 35 25 16
74 36 110 46 36 9 87 28 115 42 27 14 77 33 111 42 33 10 78 29 100 42 21 14
62 32 90 42 28 9 66 28 84 41 18 13 56 32 84 41 28 10 74 32 101 49 70 45 112
70 170 101 28 15 64 38 80 53 17 14 70 49 118 76 49 28 109 67 135 88 26 20
51 37 57 37 13 0 170 103 200 130 11 10 70 40 130 65 l110 47 95 -4 c76 -4
105 -10 145 -31 28 -14 76 -30 107 -36 31 -5 80 -22 107 -36 28 -14 74 -34
102 -45 28 -11 70 -33 93 -49 22 -15 56 -34 75 -41 18 -7 46 -24 61 -37 16
-13 47 -30 69 -38 23 -8 58 -27 78 -42 20 -15 55 -39 79 -53 23 -14 91 -65
151 -113 59 -49 131 -102 158 -118 28 -16 62 -43 75 -61 13 -18 49 -62 81 -98
33 -38 75 -100 98 -149 50 -105 55 -174 17 -274 -13 -34 -27 -82 -31 -105 -4
-23 -18 -59 -32 -79 -15 -21 -38 -58 -53 -84 -62 -103 -253 -276 -350 -316
-19 -8 -50 -26 -68 -40 -17 -13 -56 -32 -85 -42 -28 -10 -79 -32 -112 -50 -33
-17 -87 -36 -120 -42 -33 -6 -86 -22 -117 -35 -31 -13 -97 -30 -147 -38 -50
-8 -121 -28 -158 -44 -37 -17 -102 -35 -143 -41 -41 -7 -115 -25 -165 -41 -49
-16 -128 -34 -175 -41 -47 -6 -119 -22 -160 -35 -41 -13 -122 -31 -180 -40
-58 -9 -161 -32 -229 -50 -69 -19 -139 -34 -156 -34 -37 0 -105 -19 -197 -54
-37 -14 -109 -31 -160 -37 -51 -6 -138 -24 -193 -40 -55 -16 -115 -29 -134
-29 -62 0 -165 -22 -212 -45 -25 -13 -71 -30 -101 -39 -29 -8 -63 -26 -75 -38
-35 -39 -55 -88 -48 -117 4 -14 8 -80 10 -146 5 -147 36 -306 70 -355 14 -20
31 -57 39 -83 29 -95 190 -274 296 -327 25 -12 57 -31 72 -41 14 -11 62 -30
105 -43 43 -14 105 -34 137 -46 54 -19 80 -21 280 -22 271 -1 431 8 558 32 94
18 184 29 393 50 55 5 136 19 180 30 44 11 123 25 175 31 150 16 273 37 326
55 58 20 203 44 262 44 24 0 90 16 148 35 67 22 141 38 206 45 62 6 133 21
185 40 54 18 125 34 192 41 72 7 129 20 177 39 39 16 110 35 157 44 47 9 115
27 150 41 36 13 116 31 179 39 63 8 138 24 167 36 66 25 113 36 226 50 56 7
113 22 155 40 39 17 99 33 149 39 46 6 125 24 177 41 52 17 138 35 190 40 64
7 120 20 172 41 57 22 105 33 187 40 109 10 165 21 300 58 39 10 110 24 158
30 48 6 133 24 190 40 63 19 146 34 219 41 64 5 159 19 211 30 155 32 292 41
616 41 315 1 391 -6 481 -41 26 -10 83 -24 128 -30 58 -9 95 -20 127 -41 25
-16 67 -34 93 -40 26 -5 68 -24 94 -40 26 -17 64 -35 85 -41 21 -5 52 -23 68
-38 17 -16 55 -40 87 -54 31 -14 59 -30 63 -36 3 -6 33 -24 66 -41 33 -16 79
-44 103 -62 23 -18 62 -45 85 -62 24 -16 64 -48 90 -70 26 -22 83 -65 126 -95
43 -30 122 -95 174 -144 53 -49 125 -113 161 -141 92 -75 345 -327 481 -480
125 -141 195 -230 249 -318 19 -32 52 -84 73 -116 60 -95 98 -239 104 -398 5
-122 3 -140 -25 -255 -17 -67 -33 -139 -37 -159 -3 -20 -19 -55 -35 -77 -16
-22 -36 -58 -45 -78 -48 -115 -230 -331 -365 -433 -92 -70 -232 -146 -297
-162 -26 -7 -77 -25 -113 -41 -146 -65 -495 -62 -686 6 -39 14 -118 32 -175
40 -57 8 -132 24 -166 35 -33 11 -124 29 -202 40 -88 13 -164 30 -203 47 -41
16 -104 30 -181 39 -65 8 -159 26 -210 40 -51 14 -153 32 -227 41 -74 9 -168
26 -210 39 -115 35 -116 35 -255 45 -71 5 -184 20 -250 34 -66 13 -149 27
-185 31 -145 15 -296 36 -349 50 -100 25 -182 35 -426 50 -132 8 -289 21 -350
29 -701 93 -2900 97 -3586 6 -79 -10 -229 -24 -334 -30 -104 -6 -242 -20 -305
-31 -63 -11 -140 -24 -170 -29 -30 -5 -154 -21 -275 -34 -121 -14 -252 -32
-292 -40 -39 -9 -122 -20 -185 -26 -62 -6 -160 -15 -218 -21 -58 -6 -154 -21
-215 -35 -60 -14 -157 -29 -215 -34 -138 -13 -166 -17 -288 -46 -56 -13 -153
-28 -214 -34 -77 -7 -140 -20 -198 -41 -47 -16 -125 -34 -175 -40 -164 -20
-279 -37 -410 -63 -71 -14 -159 -30 -195 -37 -36 -6 -91 -22 -122 -35 -31 -13
-102 -31 -157 -39 -54 -8 -134 -26 -178 -39 -43 -14 -107 -28 -143 -32 -87 -8
-192 -30 -235 -48 -45 -19 -126 -34 -245 -46 -52 -5 -138 -21 -191 -35 -53
-13 -147 -32 -209 -40 -62 -9 -141 -27 -177 -40 -35 -14 -112 -34 -171 -45
-59 -11 -147 -32 -197 -45 -49 -14 -128 -30 -175 -36 -47 -6 -120 -24 -162
-40 -42 -15 -127 -35 -189 -44 -61 -8 -150 -28 -198 -44 -47 -17 -111 -33
-141 -37 -30 -3 -96 -21 -146 -39 -51 -18 -127 -39 -170 -45 -44 -7 -108 -23
-144 -36 -35 -14 -105 -32 -154 -40 -50 -9 -117 -27 -151 -40 -33 -13 -103
-32 -155 -43 -52 -11 -117 -29 -145 -41 -27 -12 -87 -30 -133 -41 -46 -10
-107 -30 -135 -44 -29 -13 -82 -31 -118 -39 -36 -9 -91 -27 -122 -40 -30 -14
-84 -32 -119 -41 -35 -9 -93 -30 -130 -46 -37 -16 -94 -34 -125 -40 -31 -6
-82 -23 -113 -39 -30 -15 -79 -33 -108 -39 -29 -6 -78 -24 -110 -40 -32 -16
-87 -37 -122 -46 -35 -9 -85 -27 -110 -40 -26 -13 -77 -31 -114 -39 -36 -9
-92 -29 -124 -45 -31 -15 -82 -34 -112 -40 -30 -7 -83 -25 -117 -42 -34 -17
-92 -35 -128 -40 -37 -6 -92 -22 -123 -36 -30 -13 -100 -33 -155 -45 -55 -11
-121 -29 -146 -40 -25 -11 -104 -31 -175 -44 -70 -14 -145 -31 -165 -39 -102
-38 -435 -59 -711 -44 -158 9 -185 13 -275 44 -55 18 -128 38 -162 44 -35 5
-82 21 -106 35 -24 14 -65 32 -92 40 -26 8 -57 24 -69 35 -12 12 -47 31 -77
44 -109 46 -178 89 -291 182 -104 86 -145 117 -182 140 -95 59 -285 234 -473
436 -177 190 -229 256 -267 337 -14 29 -35 67 -47 84 -13 17 -33 67 -45 112
-12 45 -30 101 -39 126 -24 65 -31 241 -11 305 75 245 120 314 244 372 73 34
83 36 177 35 55 0 168 -9 250 -19 126 -15 221 -18 585 -17 250 1 484 6 550 13
63 6 156 16 205 21 50 5 205 14 345 20 272 11 494 31 606 55 38 8 137 19 219
25 83 6 225 25 317 41 93 17 237 37 320 45 84 9 209 29 278 44 69 16 184 34
255 41 72 6 179 24 240 39 61 16 169 36 240 44 72 9 173 27 225 41 52 13 145
29 205 36 61 6 146 22 190 34 95 28 169 42 286 55 47 5 121 21 165 35 43 14
139 33 213 41 74 9 168 27 209 40 41 14 128 34 193 44 64 11 151 31 193 45 42
14 102 27 134 30 101 10 185 27 248 51 33 12 112 29 175 37 69 10 146 27 195
45 44 17 107 33 140 37 77 9 128 21 185 45 26 11 92 26 146 35 64 9 123 25
164 44 35 17 95 35 133 41 37 6 94 24 125 40 31 16 76 36 99 45 24 8 58 26 74
40 17 14 48 35 69 45 51 27 200 176 235 236 15 27 38 62 51 77 12 15 32 60 44
100 12 40 30 89 40 109 27 53 37 151 43 411 6 233 0 281 -34 302 -12 7 -160
-4 -353 -26 -49 -5 -127 -22 -175 -38 -48 -16 -130 -34 -182 -41 -52 -6 -156
-20 -230 -30 -242 -35 -352 -42 -585 -38 -213 3 -233 5 -271 25 -22 12 -69 29
-105 38 -63 16 -104 41 -199 120 -112 94 -236 187 -275 207 -15 8 -105 90
-201 183 -175 169 -309 328 -346 411 -10 23 -34 61 -53 84 -21 26 -35 53 -35
69 0 15 -7 50 -15 77 -19 63 -19 121 1 197 25 96 39 116 102 145 70 32 114 33
521 13 362 -17 740 -10 933 18 76 11 227 29 335 41 312 31 381 40 498 65 61
13 153 28 206 34 53 6 135 22 183 36 48 14 133 32 189 40 80 12 113 23 155 48
102 61 102 63 123 387 13 209 9 325 -22 584 -21 174 -24 184 -63 256 -50 94
-139 187 -187 196 -19 4 -51 16 -73 26 -56 28 -131 33 -217 15 -124 -27 -190
-37 -290 -46 -71 -7 -114 -17 -170 -41 -56 -24 -98 -34 -171 -40 -69 -7 -119
-18 -171 -38 -51 -21 -106 -33 -183 -41 -67 -8 -142 -23 -194 -41 -88 -30
-188 -50 -252 -50 -20 0 -87 -16 -148 -35 -61 -19 -133 -35 -158 -35 -26 0
-65 -5 -87 -10 -182 -46 -330 -69 -520 -81 -100 -6 -242 -23 -345 -42 l-175
-31 -405 0 -405 -1 -75 28 c-41 15 -106 35 -145 43 -38 9 -95 30 -125 48 -30
18 -70 38 -89 45 -19 6 -55 24 -80 40 -25 17 -58 34 -73 40 -15 6 -65 39 -110
74 -46 35 -101 73 -123 84 -22 12 -49 31 -60 43 -11 13 -54 50 -95 84 -41 34
-117 106 -168 161 -51 55 -123 132 -161 171 -38 39 -81 89 -95 110 -14 22 -44
64 -65 94 -22 30 -53 80 -69 110 -17 30 -39 63 -50 74 -12 10 -28 40 -37 66
-9 26 -25 56 -36 66 -31 28 -49 68 -49 108 0 19 -9 63 -20 98 -12 34 -23 97
-27 138 -5 64 -1 88 22 165 38 121 49 142 93 163 107 54 277 78 612 87 257 7
271 8 426 46 67 16 168 34 225 39 56 5 144 21 193 34 103 27 142 34 276 46 59
5 131 20 190 40 67 22 136 35 235 46 77 8 192 28 255 44 63 15 159 33 214 39
70 8 118 20 168 42 39 17 109 36 161 45 51 8 124 25 162 38 39 14 123 32 187
40 85 11 132 23 167 42 34 17 83 30 158 40 64 9 129 25 160 39 29 13 89 31
135 40 46 10 110 31 142 47 36 18 88 34 130 40 41 5 88 19 111 33 23 13 70 31
105 40 36 9 90 29 120 44 30 16 80 36 110 46 30 10 69 26 85 35 17 10 55 31
85 48 236 126 371 227 442 332 17 25 41 56 53 70 52 59 180 337 206 448 10 46
30 103 43 125 13 23 27 67 31 97 4 30 23 91 43 135 29 65 37 98 44 175 4 52
14 129 23 170 43 209 47 280 59 910 2 85 -1 312 -5 505 -7 334 -9 354 -34 445
-14 52 -34 165 -45 251 -14 117 -24 164 -40 192 -20 34 -48 129 -64 219 -4 21
-18 61 -31 90 -13 29 -28 85 -33 124 -9 61 -19 87 -69 170 -33 55 -92 160
-131 235 -40 75 -79 142 -87 149 -8 7 -24 40 -34 74 -11 33 -31 86 -45 116
-20 42 -26 71 -26 121 0 60 4 72 39 126 47 73 100 117 214 177 70 37 98 46
140 47 29 0 86 6 127 14 95 16 229 18 450 5z m1055 -14381 c167 -17 282 -37
334 -59 25 -10 72 -26 103 -34 31 -9 70 -27 85 -40 16 -14 54 -36 84 -50 30
-14 70 -37 89 -51 55 -39 137 -97 183 -130 23 -17 60 -41 82 -54 40 -23 84
-74 119 -139 18 -33 18 -44 8 -193 -9 -121 -17 -175 -36 -229 -14 -38 -28 -91
-31 -117 -4 -27 -19 -97 -35 -158 -16 -60 -33 -150 -39 -200 -12 -109 -27
-360 -23 -395 5 -36 36 -63 74 -64 88 0 466 26 563 39 165 23 574 53 805 60
284 9 360 18 436 54 90 42 98 58 92 191 -4 103 -6 112 -35 152 -17 24 -36 62
-43 85 -11 34 -50 80 -211 243 -158 160 -199 207 -205 234 -10 54 12 85 99
137 99 60 131 64 462 56 268 -7 368 -17 510 -48 50 -11 133 -27 185 -35 52 -8
147 -31 210 -49 63 -19 142 -39 174 -45 32 -5 83 -21 112 -34 30 -14 82 -32
116 -41 34 -9 81 -26 103 -39 22 -13 63 -30 90 -39 28 -8 81 -31 118 -51 38
-20 76 -36 85 -36 18 0 168 -84 212 -118 14 -10 41 -27 60 -37 44 -22 138 -81
195 -122 24 -17 58 -39 77 -49 45 -23 202 -163 264 -235 94 -109 123 -161 160
-279 45 -147 45 -205 1 -318 -51 -130 -123 -205 -404 -422 -17 -14 -58 -46
-91 -71 -32 -25 -83 -62 -113 -83 -30 -20 -83 -58 -119 -86 -36 -27 -91 -63
-122 -80 -31 -16 -59 -34 -63 -40 -4 -6 -27 -21 -53 -34 -26 -13 -71 -40 -101
-60 -29 -20 -58 -36 -65 -36 -6 0 -27 -13 -46 -29 -19 -15 -57 -40 -85 -55
-27 -15 -88 -49 -135 -76 -47 -28 -105 -59 -130 -71 -25 -11 -54 -29 -65 -39
-11 -10 -40 -29 -65 -41 -25 -13 -64 -38 -88 -56 -24 -18 -49 -33 -56 -33 -7
0 -31 -12 -52 -27 -36 -25 -66 -42 -217 -121 -62 -33 -117 -66 -200 -121 -29
-19 -122 -70 -207 -114 -85 -43 -189 -97 -230 -119 -41 -22 -93 -49 -115 -61
-22 -11 -65 -35 -95 -53 -30 -18 -73 -38 -95 -45 -22 -6 -57 -23 -79 -36 -21
-14 -62 -32 -90 -40 -28 -8 -71 -28 -96 -44 -25 -15 -75 -35 -110 -44 -36 -8
-83 -22 -105 -30 -60 -22 -174 -19 -240 6 -70 26 -90 59 -82 132 9 72 27 100
177 269 178 201 287 353 322 451 9 26 27 61 39 78 12 17 35 56 51 87 15 31 40
72 53 91 34 46 34 109 1 148 -48 57 -132 65 -317 33 -63 -11 -168 -24 -234
-30 -87 -8 -148 -20 -225 -45 -58 -19 -136 -39 -175 -45 -94 -15 -284 -79
-308 -103 -16 -16 -19 -28 -14 -76 4 -31 15 -82 27 -115 11 -32 27 -100 35
-150 10 -56 29 -119 50 -163 18 -39 39 -97 45 -128 7 -32 21 -83 32 -114 10
-31 28 -97 38 -147 12 -60 30 -108 49 -138 17 -29 34 -73 40 -112 7 -36 25
-100 42 -141 16 -42 34 -109 39 -149 5 -41 16 -87 24 -102 33 -63 58 -160 67
-261 5 -58 16 -131 24 -161 65 -232 71 -1005 10 -1265 -14 -60 -32 -154 -40
-208 -8 -54 -26 -125 -40 -158 -14 -32 -32 -90 -40 -128 -8 -38 -28 -95 -44
-128 -16 -32 -36 -87 -45 -122 -9 -36 -27 -79 -40 -95 -12 -17 -31 -56 -41
-86 -9 -30 -27 -71 -39 -90 -13 -19 -30 -57 -39 -83 -9 -26 -28 -62 -42 -79
-14 -17 -38 -54 -52 -81 -14 -28 -33 -62 -42 -77 -10 -14 -35 -52 -57 -85 -22
-33 -52 -85 -67 -115 -24 -49 -116 -180 -234 -333 -95 -124 -412 -420 -494
-463 -19 -9 -50 -29 -69 -44 -19 -16 -53 -33 -75 -40 -22 -7 -70 -25 -107 -41
-36 -16 -99 -33 -140 -39 -89 -12 -252 0 -294 22 -120 64 -149 82 -204 126
-55 45 -113 116 -175 217 -11 17 -32 47 -46 66 -14 19 -34 50 -44 69 -10 19
-30 49 -44 67 -14 17 -51 62 -81 99 -30 38 -85 100 -121 139 -36 38 -78 86
-93 105 -15 19 -45 49 -66 65 -61 49 -196 169 -334 299 -71 66 -161 145 -200
175 -131 99 -261 208 -396 333 -36 33 -110 92 -164 132 -54 39 -153 118 -219
176 -65 58 -165 143 -220 189 -55 47 -142 123 -193 170 -50 47 -145 132 -210
188 -66 56 -241 223 -391 370 -150 147 -321 313 -379 368 -59 55 -151 150
-204 210 -53 61 -144 160 -201 222 -154 166 -242 268 -312 361 -34 46 -83 111
-110 145 -26 34 -55 75 -65 91 -9 15 -29 44 -44 65 -16 20 -40 54 -54 76 -15
22 -41 56 -58 77 -17 20 -49 66 -71 103 -22 37 -55 85 -72 108 -18 23 -41 60
-52 82 -10 22 -32 57 -49 78 -17 21 -34 48 -38 60 -4 12 -19 40 -34 62 -16 23
-33 60 -39 82 -6 23 -23 55 -37 72 -13 16 -33 54 -43 84 -11 30 -31 72 -45 94
-14 21 -33 63 -42 93 -9 30 -27 69 -40 87 -14 18 -33 68 -44 112 -11 44 -29
96 -40 114 -11 19 -29 80 -40 135 -10 55 -28 119 -40 142 -27 53 -43 186 -38
315 l3 100 52 79 c29 43 61 84 71 92 31 22 247 64 325 64 40 0 99 -7 132 -15
33 -8 93 -22 134 -30 40 -8 92 -25 115 -39 22 -13 61 -29 86 -36 25 -6 68 -26
95 -45 28 -18 68 -38 90 -45 22 -7 63 -25 90 -40 28 -16 61 -31 75 -35 14 -4
60 -22 102 -41 63 -28 93 -35 170 -40 131 -9 357 10 475 40 54 13 163 31 243
40 80 9 182 25 225 36 44 11 154 29 244 40 90 12 197 32 240 46 44 14 133 30
213 39 76 8 158 23 185 34 54 21 141 36 292 51 57 6 140 22 185 36 45 14 137
32 206 40 176 21 195 27 231 77 l31 42 -6 110 c-3 61 -10 148 -16 195 -5 47
-14 134 -20 193 -8 87 -17 121 -40 168 -17 32 -35 82 -41 110 -7 33 -22 63
-41 83 -17 17 -38 47 -49 67 -18 36 -137 149 -194 183 -16 10 -41 29 -55 41
-14 12 -48 30 -76 39 -29 9 -60 26 -69 36 -10 11 -43 34 -74 51 -31 18 -75 53
-99 78 -75 80 -98 146 -71 205 12 26 106 103 159 131 17 9 52 32 77 51 24 19
50 34 56 34 6 0 37 16 69 35 33 21 81 40 115 46 32 6 85 22 118 35 65 27 172
54 210 54 13 0 74 16 135 35 61 19 144 38 183 41 40 3 124 19 187 34 119 30
225 42 560 65 202 13 212 13 395 -6z"/>
<path d="M19405 15153 c-64 -8 -190 -36 -229 -50 -23 -8 -86 -21 -141 -29 -55
-8 -134 -25 -175 -38 -41 -14 -126 -32 -189 -41 -62 -9 -137 -25 -165 -36 -59
-22 -113 -33 -281 -54 -66 -9 -136 -20 -155 -25 -78 -21 -316 -49 -495 -60
-304 -17 -458 -45 -512 -93 -28 -25 -33 -36 -33 -73 0 -28 10 -64 26 -97 15
-28 34 -74 44 -102 17 -49 100 -188 120 -200 6 -4 24 -34 42 -68 42 -84 121
-178 219 -262 19 -16 78 -69 130 -116 305 -280 377 -343 409 -356 19 -8 53
-32 75 -53 22 -21 72 -58 110 -83 39 -26 90 -60 114 -77 24 -18 60 -38 80 -45
20 -7 61 -26 91 -41 53 -28 59 -29 206 -29 145 0 152 1 190 26 21 14 62 34 91
43 108 36 262 188 330 325 14 30 36 70 49 88 12 18 27 56 34 85 6 29 24 82 40
118 16 36 34 97 40 135 5 39 23 123 40 188 22 89 32 158 39 275 11 168 16 442
13 610 -3 141 -17 153 -157 135z"/>
</g>
</svg>
